<svg xmlns="http://www.w3.org/2000/svg" width="44.757" height="49.73" viewBox="0 0 44.757 49.73">
  <path id="calendar" d="M.017,16.839A13.2,13.2,0,0,1,2.1,9.022l.387-.565.032-.031.269-.315h0l.282-.322L3.1,7.755A10.185,10.185,0,0,1,4.873,6.306l.181-.115h0l.181-.106.427-.246c.173-.082.36-.179.533-.261.126-.049.252-.113.378-.162.237-.1.488-.2.74-.279a1.289,1.289,0,0,1,.267-.1L7.682,5h0l.111-.041a17.994,17.994,0,0,1,3.519-.688l-.123.014V1.811a1.79,1.79,0,1,1,3.581,0V9.628a1.79,1.79,0,1,1-3.581,0V7.821a11.789,11.789,0,0,0-3.422.873c-2.823,1.27-4.169,3.688-4.3,7.52l-.01.617v.963H41.3v-.987a10.97,10.97,0,0,0-1.039-5.136,6.547,6.547,0,0,0-3.287-3,11.4,11.4,0,0,0-2.782-.8L33.568,7.8V9.619a1.79,1.79,0,0,1-3.581,0V7.661h-15.2V4.106h15.2V1.8a1.79,1.79,0,0,1,3.581-.027v2.5a17.277,17.277,0,0,1,2.578.454l.843.238a1.4,1.4,0,0,1,.213.064c.094.033.173.066.267.1.25.082.482.179.723.279.139.049.267.113.375.162.188.082.38.179.533.261s.309.173.442.246.235.155.346.221A10.765,10.765,0,0,1,41.26,7.343l.418.4.019.033.292.31h0l.275.327.015.031a13.166,13.166,0,0,1,2.477,7.694l-.017.693v.963h.017V37.074c0,8.408-4.7,12.656-14,12.656H13.98C4.7,49.73,0,45.482,0,37.074H0V17.793H.017Zm32.6,18.584a2.086,2.086,0,0,0-2.07,2.113,2.114,2.114,0,0,0,2.07,2.113,2.114,2.114,0,0,0,0-4.226ZM22.389,35.4a2.125,2.125,0,0,0,0,4.248,2.088,2.088,0,0,0,2.049-2.135A2.126,2.126,0,0,0,22.389,35.4Zm-10.245,0a2.125,2.125,0,0,0,0,4.248,2.125,2.125,0,0,0,0-4.248Zm20.468-9a2.114,2.114,0,1,0,2.049,2.113A2.069,2.069,0,0,0,32.613,26.4Zm-10.223-.022a2.125,2.125,0,0,0,0,4.248,2.088,2.088,0,0,0,2.049-2.135,2.111,2.111,0,0,0-2.049-2.113Zm-10.223,0a2.105,2.105,0,0,0-2.07,2.135,2.05,2.05,0,1,0,2.07-2.135Z" transform="translate(0 0)" fill="#8d6e63"/>
</svg>
