<svg xmlns="http://www.w3.org/2000/svg" width="78.387" height="65.052" viewBox="0 0 78.387 65.052">
  <g id="Group_66931" data-name="Group 66931" transform="translate(-6254.839 6986.627)">
    <path id="hair-color" d="M20.253,1.736a1.59,1.59,0,0,1-.246.823l-4.6,7.981-1.643-.905L16.886,1.16a1.741,1.741,0,0,1,3.367.576Zm4.928,3.949-4.928,7.734-1.56-.905,3.449-8.392a1.715,1.715,0,1,1,3.039,1.563Zm5.174,3.127-5.256,7.4-1.56-.905L27.48,7.084a1.608,1.608,0,0,1,2.3-.74A1.7,1.7,0,0,1,30.355,8.812Zm5.174,3.127L29.944,19.1,28.3,18.109l4.353-8.063a1.755,1.755,0,0,1,2.382-.658A1.721,1.721,0,0,1,35.529,11.938ZM1.2,49.21C1.118,47.07,4.9,37.855,11.712,24.856a13.238,13.238,0,0,0,2.628,2.057,14.154,14.154,0,0,0,3.039,1.316C9.494,40.324,3.171,48.222,1.2,49.21ZM29.78,23.046a12.017,12.017,0,0,1-8.87,3.949,10.709,10.709,0,0,1-5.667-1.563,11.93,11.93,0,0,1-5.01-13.987,1.432,1.432,0,0,1,1.4-.987,2.394,2.394,0,0,1,.739.165L29.451,20.66a1.449,1.449,0,0,1,.739,1.07,2.279,2.279,0,0,1-.411,1.316Z" transform="translate(6262.727 -6962.64) rotate(-42)" fill="#ffc107"/>
    <path id="makeup-brushes" d="M146.762,79.109l-4.6,8.793h-2.245l.093-.461.093-.461,1.1-5.436-1.205-.244-1.149,5.679-.093.461-.093.461h-1.514l-.093-.461-.093-.461L135.81,81.3l-1.205.244,1.1,5.436.093.461.093.461h-2.282l-4.567-8.8a.941.941,0,0,1,.349-1.238l1.245-.75a14.047,14.047,0,0,1,14.535,0l1.244.75A.941.941,0,0,1,146.762,79.109Zm6.263,21.315,1.35.362.319-1.187-1.35-.362.191-.712.779.209.319-1.188-.78-.209.35-1.3-1.188-.318-.35,1.3-.78-.209L151.567,98l.78.209-.191.711-1.35-.362-.318,1.188,1.35.362-.19.712-1.855-.5-.318,1.188,1.854.5-.191.711-1.35-.362-.318,1.188,1.35.362-.19.711-.78-.209-.318,1.188.78.209L148,114.41l-1.961-.525a.687.687,0,0,0-.841.486L141.925,126.6a1.585,1.585,0,0,0,1.121,1.942l3.372.9a1.573,1.573,0,0,0,.41.055,1.589,1.589,0,0,0,1.532-1.176l3.278-12.233a.688.688,0,0,0-.485-.841l-1.96-.525,2.307-8.608.779.209.319-1.188-.78-.209.191-.71,1.35.362.319-1.188-1.35-.362.191-.712,1.853.5.319-1.188-1.854-.5Zm-7.479,25.42-1.188-.319,2.181-8.136,1.187.319Zm13.791-41.052a.34.34,0,0,1-.255.329l-1.354.351a3.341,3.341,0,0,0-2.395,2.395l-.351,1.354a.34.34,0,0,1-.658,0l-.351-1.354a3.342,3.342,0,0,0-2.4-2.395l-1.354-.351a.34.34,0,0,1,0-.658l1.354-.351a3.341,3.341,0,0,0,2.4-2.395l.351-1.354a.341.341,0,0,1,.329-.255.335.335,0,0,1,.208.071.339.339,0,0,1,.121.183l.351,1.354a3.34,3.34,0,0,0,2.395,2.395l1.354.351A.34.34,0,0,1,159.337,84.792Zm-17.931,19.362v1.953c0,1.565-.057,3.15-.168,4.712l-1.2,16.76a1.292,1.292,0,0,1-1.285,1.2h-1.7a1.292,1.292,0,0,1-1.284-1.2l-1.2-16.76c-.111-1.561-.168-3.147-.168-4.712v-1.953Zm.935-14.714v1.737a74.262,74.262,0,0,1-.593,9.342l-.228,1.79h-7.239l-.213-1.607q-.28-2.111-.438-4.249h4.3v-1.23H133.55c-.081-1.411-.122-2.824-.122-4.23V89.439Z" transform="translate(6194.865 -7083.602) rotate(13)" fill="#ffc107"/>
    <g id="hair-comb" transform="translate(6300.965 -6959.717) rotate(102)">
      <path id="Path_40428" data-name="Path 40428" d="M0,17.135l3.477,3.415M.621,16.514,4.1,19.928M1.242,15.893,4.656,19.37m-2.794-4.1,3.415,3.477m-2.856-4.1L5.9,18.128m-2.856-4.1,3.477,3.477M3.663,13.472l3.477,3.415M4.284,12.851,7.76,16.266M4.9,12.23l3.415,3.477m-2.794-4.1L8.94,15.086m-2.856-4.1,3.477,3.477M6.7,10.368l3.477,3.477M7.326,9.809,10.8,13.224M7.947,9.188,11.423,12.6M8.567,8.567l3.477,3.477m-2.856-4.1L12.6,11.423m-2.856-4.1L13.224,10.8M10.368,6.7l3.477,3.477M10.989,6.146l3.477,3.415M11.609,5.525,15.086,8.94M12.23,4.9l3.477,3.477m-2.856-4.1L16.266,7.76m-2.856-4.1,3.477,3.477m-2.856-4.1,3.477,3.477M14.651,2.483,18.128,5.9M15.272,1.862l3.477,3.415M15.893,1.242,19.37,4.718M16.514.621,19.928,4.1M17.073,0l3.477,3.477" transform="translate(2.421 18.407)" fill="none" stroke="#ffc107" stroke-linecap="round" stroke-linejoin="round" stroke-width="0.2"/>
      <path id="Path_40429" data-name="Path 40429" d="M23.653,21.574c.124-.124.124-.31,0-.372l-3.228-3.228.621-.621C23.157,13.317,30.669,5.8,34.456,3.384a1.006,1.006,0,0,0,.186-1.552L33.09.279a1.052,1.052,0,0,0-1.428,0L.931,30.948a3.148,3.148,0,0,0,0,4.47l4.222,4.222c.124.124.31.124.372,0,.124-.124.124-.31,0-.372L2.3,35.977,19.928,18.345l3.228,3.228A.375.375,0,0,0,23.653,21.574Z" transform="translate(0 0)" fill="#ffc107"/>
    </g>
  </g>
</svg>
